<svg width="24" height="24" viewBox="0 0 24 24" fill="none" xmlns="http://www.w3.org/2000/svg">
<path d="M12 21L3.39999 12.2C1.59999 10.3 1.59999 7.3 3.39999 5.4C4.29999 4.5 5.39999 4 6.69999 4C7.89999 4 9.09999 4.5 9.99999 5.4L12 7.4L14 5.4C14.9 4.5 16.1 4 17.3 4C18.6 4 19.7 4.5 20.6 5.4C22.4 7.3 22.4 10.3 20.6 12.2L12 21ZM6.69999 6C5.99999 6 5.29999 6.3 4.79999 6.8C3.69999 7.9 3.69999 9.7 4.79999 10.8L12 18.2L19.2 10.8C20.3 9.7 20.3 7.9 19.2 6.8C18.2 5.8 16.4 5.8 15.4 6.8L12 10.3L8.59999 6.8C8.09999 6.3 7.39999 6 6.69999 6Z" fill="black"/>
</svg>
