<svg width="24" height="24" viewBox="0 0 24 24" fill="none" xmlns="http://www.w3.org/2000/svg">
<path d="M12 13C9.2 13 7 10.8 7 8C7 5.2 9.2 3 12 3C14.8 3 17 5.2 17 8C17 10.8 14.8 13 12 13ZM12 5C10.3 5 9 6.3 9 8C9 9.7 10.3 11 12 11C13.7 11 15 9.7 15 8C15 6.3 13.7 5 12 5Z" fill="black"/>
<path d="M17.9 21H6.1C5.4 21 4.8 20.7 4.4 20.1C4 19.5 4 18.8 4.3 18.2L5.5 15.7C5.8 15 6.5 14.5 7.3 14.5H16.7C17.5 14.5 18.2 15 18.5 15.7L19.7 18.2H19.6H19.7C19.8 18.4 19.8 18.6 19.9 18.7L20.1 19.1L19.9 19.2C19.9 19.5 19.8 19.8 19.6 20.1C19.2 20.7 18.6 21 17.9 21ZM7.3 16.5L6.1 19H17.8L16.6 16.5H7.3Z" fill="black"/>
</svg>
