<svg width="24" height="24" viewBox="0 0 24 24" fill="none" xmlns="http://www.w3.org/2000/svg">
<path fill-rule="evenodd" clip-rule="evenodd" d="M11.9773 18.3639C14.3 18.3639 16.4836 17.4441 18.126 15.774C19.7684 14.1038 20.6729 11.8832 20.6729 9.52128V9.33951H19.6531V9.52128C19.6531 11.6062 18.8546 13.5664 17.4049 15.0406C15.9551 16.515 14.0276 17.3269 11.9773 17.3269C9.92699 17.3269 7.99941 16.515 6.54966 15.0406C5.09987 13.5664 4.30144 11.6062 4.30144 9.52128V9.33951H3.28167V9.52128C3.28167 11.8832 4.18614 14.1038 5.82855 15.774C7.47096 17.4441 9.6546 18.3639 11.9773 18.3639ZM11.9773 4.03699C14.9511 4.03699 17.3704 6.49723 17.3704 9.52129C17.3704 12.5453 14.9511 15.0056 11.9773 15.0056C9.0035 15.0056 6.5841 12.5453 6.5841 9.52129C6.5841 6.49723 9.0035 4.03699 11.9773 4.03699ZM11.9773 16.0426C13.6903 16.0426 15.3006 15.3643 16.5119 14.1326C17.7232 12.9009 18.3902 11.2632 18.3902 9.52124C18.3902 7.77936 17.7232 6.14168 16.5119 4.90998C15.3006 3.67821 13.6903 2.99988 11.9773 2.99988C10.2643 2.99988 8.65385 3.67821 7.44261 4.90998C6.23138 6.14168 5.56432 7.77936 5.56432 9.52124C5.56432 11.2632 6.23138 12.9009 7.44261 14.1326C8.65385 15.3643 10.2643 16.0426 11.9773 16.0426ZM21.9347 9.33951V9.52128C21.9347 12.226 20.8989 14.7688 19.0182 16.6813C17.1375 18.5938 14.637 19.6471 11.9773 19.6471C9.31756 19.6471 6.81701 18.5938 4.93625 16.6813C3.05555 14.7688 2.01983 12.226 2.01983 9.52128V9.33951H1V9.52128C1 11.028 1.29027 12.49 1.86285 13.8665C2.41575 15.1959 3.20721 16.3896 4.21519 17.4146C5.22312 18.4397 6.39707 19.2444 7.70426 19.8067C9.05794 20.3889 10.4956 20.6841 11.9773 20.6841C13.459 20.6841 14.8966 20.3889 16.2503 19.8067C17.5575 19.2444 18.7314 18.4397 19.7394 17.4146C20.7473 16.3896 21.5387 15.1959 22.0917 13.8665C22.6642 12.49 22.9545 11.028 22.9545 9.52128V9.33951H21.9347ZM15.7686 10.8917H13.872V6.75803H12.7735V11.8887H15.7686V10.8917ZM10.2649 10.9826C9.41021 10.9826 8.8185 10.4142 8.8185 10.4142L8.20759 11.1784C8.20759 11.1784 8.99669 11.959 10.2442 11.959C11.3565 11.959 12.0754 11.3382 12.0754 10.3775C12.0754 9.37094 11.2899 9.03796 10.441 8.82803C9.45633 8.58885 9.40835 8.42258 9.40835 8.14932C9.40835 7.85013 9.65711 7.6643 10.0575 7.6643C10.685 7.6643 11.1751 8.03748 11.1751 8.03748L11.7936 7.26257C11.7936 7.26257 11.1601 6.68845 10.0714 6.68845C9.0433 6.68845 8.35256 7.30662 8.35256 8.22659C8.35256 9.19943 8.97207 9.54194 10.0423 9.80489C11.019 10.0346 11.019 10.2328 11.019 10.4625C11.019 10.7833 10.73 10.9826 10.2649 10.9826Z" fill="black"/>
</svg>
