<svg width="20" height="16" viewBox="0 0 20 16" fill="none" xmlns="http://www.w3.org/2000/svg">
<path fill-rule="evenodd" clip-rule="evenodd" d="M9.99996 13.9007C12.1159 13.9007 14.1051 13.0686 15.6013 11.5575C17.0974 10.0464 17.9214 8.03728 17.9214 5.9003V5.73584H16.9924V5.9003C16.9924 7.78667 16.265 9.56015 14.9443 10.894C13.6236 12.2279 11.8677 12.9625 9.99996 12.9625C8.13221 12.9625 6.37625 12.2279 5.05557 10.894C3.73485 9.56015 3.00751 7.78667 3.00751 5.9003V5.73584H2.07853V5.9003C2.07853 8.03728 2.90247 10.0464 4.39866 11.5575C5.89485 13.0686 7.88407 13.9007 9.99996 13.9007ZM9.99997 0.938337C12.709 0.938337 14.9129 3.16426 14.9129 5.9003C14.9129 8.63634 12.709 10.8623 9.99997 10.8623C7.29094 10.8623 5.08694 8.63634 5.08694 5.9003C5.08694 3.16426 7.29094 0.938337 9.99997 0.938337ZM9.99996 11.8005C11.5604 11.8005 13.0274 11.1868 14.1309 10.0724C15.2343 8.95799 15.842 7.47629 15.842 5.90026C15.842 4.32427 15.2343 2.84258 14.1309 1.72818C13.0274 0.613728 11.5604 0 9.99996 0C8.43949 0 6.97242 0.613728 5.86902 1.72818C4.76562 2.84258 4.15796 4.32427 4.15796 5.90026C4.15796 7.47629 4.76562 8.95799 5.86902 10.0724C6.97242 11.1868 8.43949 11.8005 9.99996 11.8005ZM19.0709 5.73584V5.9003C19.0709 8.34743 18.1273 10.648 16.4141 12.3784C14.7008 14.1088 12.4229 15.0617 9.99996 15.0617C7.57704 15.0617 5.29912 14.1088 3.58581 12.3784C1.87254 10.648 0.92903 8.34743 0.92903 5.9003V5.73584H0V5.9003C0 7.26354 0.264424 8.58629 0.786029 9.8317C1.2897 11.0344 2.0107 12.1145 2.92894 13.0419C3.84713 13.9693 4.91657 14.6974 6.10737 15.2061C7.34054 15.7329 8.65017 16 9.99996 16C11.3498 16 12.6594 15.7329 13.8925 15.2061C15.0834 14.6974 16.1528 13.9693 17.071 13.0419C17.9892 12.1145 18.7102 11.0344 19.2139 9.8317C19.7354 8.58629 19.9999 7.26354 19.9999 5.9003V5.73584H19.0709ZM13.4537 7.14023H11.726V3.40022H10.7253V8.04221H13.4537V7.14023ZM8.44008 7.22246C7.66145 7.22246 7.12241 6.70817 7.12241 6.70817L6.56589 7.39963C6.56589 7.39963 7.28474 8.10587 8.42116 8.10587C9.4345 8.10587 10.0893 7.5442 10.0893 6.67497C10.0893 5.76427 9.37381 5.46301 8.60047 5.27307C7.70345 5.05667 7.65975 4.90623 7.65975 4.659C7.65975 4.38831 7.88636 4.22017 8.25113 4.22017C8.82274 4.22017 9.26917 4.55781 9.26917 4.55781L9.83263 3.85671C9.83263 3.85671 9.25558 3.33727 8.26377 3.33727C7.3272 3.33727 6.69795 3.89656 6.69795 4.72892C6.69795 5.6091 7.26232 5.91899 8.2373 6.15689C9.12697 6.36468 9.12697 6.54407 9.12697 6.75185C9.12697 7.04212 8.86374 7.22246 8.44008 7.22246Z" fill="#2870F0"/>
</svg>
