<svg width="77" height="77" viewBox="0 0 77 77" fill="none" xmlns="http://www.w3.org/2000/svg">
<path d="M18.0643 29.5784C17.7695 29.2836 17.2915 29.2836 16.9967 29.5784C16.7019 29.8732 16.7019 30.3512 16.9967 30.646L18.0643 29.5784ZM38.5 51.0817L37.9662 51.6155C38.261 51.9103 38.739 51.9103 39.0338 51.6155L38.5 51.0817ZM60.0033 30.646C60.2981 30.3512 60.2981 29.8732 60.0033 29.5784C59.7085 29.2836 59.2305 29.2836 58.9357 29.5784L60.0033 30.646ZM16.9967 30.646L37.9662 51.6155L39.0338 50.5479L18.0643 29.5784L16.9967 30.646ZM39.0338 51.6155L60.0033 30.646L58.9357 29.5784L37.9662 50.5479L39.0338 51.6155ZM75.4902 38.5C75.4902 58.9291 58.9291 75.4902 38.5 75.4902V77C59.763 77 77 59.763 77 38.5H75.4902ZM38.5 75.4902C18.0709 75.4902 1.5098 58.9291 1.5098 38.5H0C0 59.763 17.237 77 38.5 77V75.4902ZM1.5098 38.5C1.5098 18.0709 18.0709 1.5098 38.5 1.5098V0C17.237 0 0 17.237 0 38.5H1.5098ZM38.5 1.5098C58.9291 1.5098 75.4902 18.0709 75.4902 38.5H77C77 17.237 59.763 0 38.5 0V1.5098Z" fill="#001A72"/>
</svg>
