<svg width="60" height="48" viewBox="0 0 60 48" fill="none" xmlns="http://www.w3.org/2000/svg">
<path fill-rule="evenodd" clip-rule="evenodd" d="M29.9999 41.7022C36.3476 41.7022 42.3153 39.2057 46.8039 34.6724C51.2923 30.1392 53.7643 24.1119 53.7643 17.7009V17.2075H50.9772V17.7009C50.9772 23.36 48.7951 28.6805 44.8331 32.682C40.871 36.6837 35.6032 38.8875 29.9999 38.8875C24.3967 38.8875 19.1288 36.6837 15.1668 32.682C11.2046 28.6805 9.02255 23.36 9.02255 17.7009V17.2075H6.23561V17.7009C6.23561 24.1119 8.70743 30.1392 13.196 34.6724C17.6846 39.2057 23.6523 41.7022 29.9999 41.7022ZM29.9999 2.81501C38.127 2.81501 44.7389 9.49279 44.7389 17.7009C44.7389 25.909 38.127 32.587 29.9999 32.587C21.8729 32.587 15.2609 25.909 15.2609 17.7009C15.2609 9.49279 21.8729 2.81501 29.9999 2.81501ZM29.9999 35.4016C34.6814 35.4016 39.0824 33.5604 42.3928 30.2172C45.703 26.874 47.526 22.4289 47.526 17.7008C47.526 12.9728 45.703 8.52774 42.3928 5.18454C39.0824 1.84119 34.6814 0 29.9999 0C25.3185 0 20.9173 1.84119 17.6071 5.18454C14.2969 8.52774 12.4739 12.9728 12.4739 17.7008C12.4739 22.4289 14.2969 26.874 17.6071 30.2172C20.9173 33.5604 25.3185 35.4016 29.9999 35.4016ZM57.2128 17.2075V17.7009C57.2128 25.0423 54.3821 31.9441 49.2423 37.1351C44.1025 42.3263 37.2687 45.1851 29.9999 45.1851C22.7312 45.1851 15.8974 42.3263 10.7574 37.1351C5.61764 31.9441 2.7871 25.0423 2.7871 17.7009V17.2075H0V17.7009C0 21.7907 0.793273 25.7589 2.35809 29.4951C3.86912 33.1033 6.03211 36.3435 8.78684 39.1257C11.5414 41.9079 14.7497 44.0923 18.3222 45.6184C22.0216 47.1987 25.9506 48 29.9999 48C34.0493 48 37.9782 47.1987 41.6777 45.6184C45.2501 44.0923 48.4585 41.9079 51.213 39.1257C53.9678 36.3435 56.1306 33.1033 57.6418 29.4951C59.2064 25.7589 59.9999 21.7907 59.9999 17.7009V17.2075H57.2128ZM40.3612 21.4207H35.1781V10.2007H32.1759V24.1267H40.3612V21.4207ZM25.3203 21.6674C22.9844 21.6674 21.3673 20.1245 21.3673 20.1245L19.6977 22.1989C19.6977 22.1989 21.8543 24.3176 25.2635 24.3176C28.3035 24.3176 30.268 22.6326 30.268 20.0249C30.268 17.2928 28.1215 16.389 25.8014 15.8192C23.1104 15.17 22.9793 14.7187 22.9793 13.977C22.9793 13.1649 23.6591 12.6605 24.7534 12.6605C26.4683 12.6605 27.8075 13.6734 27.8075 13.6734L29.4979 11.5701C29.4979 11.5701 27.7668 10.0118 24.7914 10.0118C21.9816 10.0118 20.0939 11.6897 20.0939 14.1868C20.0939 16.8273 21.787 17.757 24.7119 18.4707C27.3809 19.0941 27.3809 19.6322 27.3809 20.2556C27.3809 21.1264 26.5913 21.6674 25.3203 21.6674Z" fill="black"/>
</svg>
